HIERARCHY
ROOT Hips
{
	OFFSET 0.00000 0.00000 0.00000
	CHANNELS 6 Xposition Yposition Zposition Zrotation Yrotation Xrotation 
	JOINT LHipJoint
	{
		OFFSET 0 0 0
		CHANNELS 3 Zrotation Yrotation Xrotation
		JOINT LeftUpLeg
		{
			OFFSET 1.65674 -1.80282 0.62477
			CHANNELS 3 Zrotation Yrotation Xrotation
			JOINT LeftLeg
			{
				OFFSET 2.59720 -7.13576 0.00000
				CHANNELS 3 Zrotation Yrotation Xrotation
				JOINT LeftFoot
				{
					OFFSET 2.49236 -6.84770 0.00000
					CHANNELS 3 Zrotation Yrotation Xrotation
					JOINT LeftToeBase
					{
						OFFSET 0.19704 -0.54136 2.14581
						CHANNELS 3 Zrotation Yrotation Xrotation
						End Site
						{
							OFFSET 0.00000 -0.00000 1.11249
						}
					}
				}
			}
		}
	}
	JOINT RHipJoint
	{
		OFFSET 0 0 0
		CHANNELS 3 Zrotation Yrotation Xrotation
		JOINT RightUpLeg
		{
			OFFSET -1.61070 -1.80282 0.62476
			CHANNELS 3 Zrotation Yrotation Xrotation
			JOINT RightLeg
			{
				OFFSET -2.59502 -7.12977 0.00000
				CHANNELS 3 Zrotation Yrotation Xrotation
				JOINT RightFoot
				{
					OFFSET -2.46780 -6.78024 0.00000
					CHANNELS 3 Zrotation Yrotation Xrotation
					JOINT RightToeBase
					{
						OFFSET -0.23024 -0.63258 2.13368
						CHANNELS 3 Zrotation Yrotation Xrotation
						End Site
						{
							OFFSET -0.00000 -0.00000 1.11569
						}
					}
				}
			}
		}
	}
	JOINT LowerBack
	{
		OFFSET 0 0 0
		CHANNELS 3 Zrotation Yrotation Xrotation
		JOINT Spine
		{
			OFFSET 0.01961 2.05450 -0.14112
			CHANNELS 3 Zrotation Yrotation Xrotation
			JOINT Spine1
			{
				OFFSET 0.01021 2.06436 -0.05921
				CHANNELS 3 Zrotation Yrotation Xrotation
				JOINT Neck
				{
					OFFSET 0 0 0
					CHANNELS 3 Zrotation Yrotation Xrotation
					JOINT Neck1
					{
						OFFSET 0.00713 1.56711 0.14968
						CHANNELS 3 Zrotation Yrotation Xrotation
						JOINT Head
						{
							OFFSET 0.03429 1.56041 -0.10006
							CHANNELS 3 Zrotation Yrotation Xrotation
							End Site
							{
								OFFSET 0.01305 1.62560 -0.05265
							}
						}
					}
				}
				JOINT LeftShoulder
				{
					OFFSET 0 0 0
					CHANNELS 3 Zrotation Yrotation Xrotation
					JOINT LeftArm
					{
						OFFSET 3.54205 0.90436 -0.17364
						CHANNELS 3 Zrotation Yrotation Xrotation
						JOINT LeftForeArm
						{
							OFFSET 4.86513 -0.00000 -0.00000
							CHANNELS 3 Zrotation Yrotation Xrotation
							JOINT LeftHand
							{
								OFFSET 3.35554 -0.00000 0.00000
								CHANNELS 3 Zrotation Yrotation Xrotation
								JOINT LeftFingerBase
								{
									OFFSET 0 0 0
									CHANNELS 3 Zrotation Yrotation Xrotation
									JOINT LeftHandIndex1
									{
										OFFSET 0.66117 -0.00000 0.00000
										CHANNELS 3 Zrotation Yrotation Xrotation
										End Site
										{
											OFFSET 0.53306 -0.00000 0.00000
										}
									}
								}
								JOINT LThumb
								{
									OFFSET 0 0 0
									CHANNELS 3 Zrotation Yrotation Xrotation
									End Site
									{
										OFFSET 0.54120 -0.00000 0.54120
									}
								}
							}
						}
					}
				}
				JOINT RightShoulder
				{
					OFFSET 0 0 0
					CHANNELS 3 Zrotation Yrotation Xrotation
					JOINT RightArm
					{
						OFFSET -3.49802 0.75994 -0.32616
						CHANNELS 3 Zrotation Yrotation Xrotation
						JOINT RightForeArm
						{
							OFFSET -5.02649 -0.00000 0.00000
							CHANNELS 3 Zrotation Yrotation Xrotation
							JOINT RightHand
							{
								OFFSET -3.36431 -0.00000 0.00000
								CHANNELS 3 Zrotation Yrotation Xrotation
								JOINT RightFingerBase
								{
									OFFSET 0 0 0
									CHANNELS 3 Zrotation Yrotation Xrotation
									JOINT RightHandIndex1
									{
										OFFSET -0.73041 -0.00000 0.00000
										CHANNELS 3 Zrotation Yrotation Xrotation
										End Site
										{
											OFFSET -0.58887 -0.00000 0.00000
										}
									}
								}
								JOINT RThumb
								{
									OFFSET 0 0 0
									CHANNELS 3 Zrotation Yrotation Xrotation
									End Site
									{
										OFFSET -0.59786 -0.00000 0.59786
									}
								}
							}
						}
					}
				}
			}
		}
	}
}
MOTION
Frames: 9
Frame Time: .0083333
18.2517 15.9599 -3.2287 154.8840 -72.7469 -151.2280 0.0000 0.0000 0.0000 -12.8971 22.4339 -31.8121 8.8415 16.7046 55.5403 1.0201 17.6913 -32.4081 0.2098 2.9493 8.1377 0.0000 0.0000 0.0000 7.3473 11.1341 -35.3339 -11.6815 -18.2527 64.9756 -2.5723 5.9344 -29.1161 -0.3656 3.8843 -10.7513 0.7964 -1.3157 16.8359 -0.1843 -2.4397 10.0726 -0.2770 -1.5207 1.2712 9.9310 21.1403 -0.6106 -20.1718 28.7827 -2.6282 -5.4808 14.3190 3.6990 -0.0000 0.0000 0.0000 -76.1936 -15.6218 18.6965 66.1989 -57.7474 -39.5435 -0.0000 0.0000 -23.8135 31.2273 12.0999 7.2426 -7.1250 0.0000 -0.0000 3.6978 44.0227 -0.0893 -0.0000 0.0000 0.0000 44.6569 -11.8665 -36.3648 -58.8075 55.9837 -33.3507 0.0000 -0.0000 -32.2600 -55.3385 23.4666 -29.9385 7.1250 -0.0000 -0.0000 -15.1876 6.2311 -17.3366
18.2550 15.9512 -3.2138 153.9460 -72.8228 -150.0990 0.0000 0.0000 0.0000 -13.2543 22.2632 -32.1657 8.8798 16.7297 55.6735 1.0441 17.5757 -32.4363 0.2024 2.8969 7.9918 0.0000 0.0000 0.0000 6.9732 11.1210 -35.7019 -11.7503 -18.2831 65.1950 -2.5581 5.8670 -29.0396 -0.4397 4.2547 -11.7943 0.5789 -1.3094 16.7757 -0.2368 -2.4560 10.0553 -0.2090 -1.5342 1.2884 10.0186 21.1852 -0.5006 -20.2685 28.8611 -2.6118 -5.5110 14.3631 3.7259 0.0000 0.0000 0.0000 -76.2536 -15.5828 18.6713 66.3136 -57.7701 -39.6406 -0.0000 0.0000 -23.7756 31.6646 11.5816 7.0586 -7.1250 0.0000 -0.0000 4.1247 43.4797 -0.1550 0.0000 0.0000 0.0000 44.6795 -11.4760 -36.5218 -58.0340 55.7629 -32.7104 0.0000 -0.0000 -32.5993 -55.6009 23.2130 -29.9274 7.1250 -0.0000 -0.0000 -15.4028 6.0521 -17.5571
18.2598 15.9366 -3.1948 153.3230 -73.0181 -149.4200 0.0000 0.0000 0.0000 -13.4261 22.2843 -32.4829 8.9318 16.7637 55.8541 0.9631 17.7371 -32.1043 0.1456 2.4591 6.7762 0.0000 0.0000 0.0000 6.7782 10.9572 -35.9314 -11.8118 -18.3100 65.3911 -2.5540 5.8254 -29.0206 -0.5252 4.6444 -12.8972 0.5728 -1.2595 16.8534 -0.2188 -2.3931 10.0837 -0.1944 -1.5043 1.2803 9.9356 21.1745 -0.7270 -20.1221 28.8656 -2.3403 -5.4269 14.3423 3.8077 -0.0000 0.0000 0.0000 -76.4195 -15.7795 18.8468 66.1396 -57.7356 -39.4934 -0.0000 0.0000 -23.5963 31.9687 11.2315 6.9309 -7.1250 0.0000 -0.0000 4.4163 43.1111 -0.2063 -0.0000 0.0000 0.0000 44.7643 -11.1920 -36.8912 -57.2137 55.5206 -32.0333 0.0000 -0.0000 -32.8309 -55.7288 23.3200 -30.1542 7.1250 -0.0000 -0.0000 -15.4409 6.2716 -17.6568
18.2650 15.9204 -3.1762 153.0150 -73.3002 -149.1660 0.0000 0.0000 0.0000 -13.3984 22.1913 -32.6282 8.9999 16.8077 56.0898 0.9986 17.5609 -32.1411 0.1412 2.4218 6.6729 0.0000 0.0000 0.0000 6.7339 10.7470 -35.9857 -11.8561 -18.3292 65.5321 -2.5702 6.0126 -29.0943 -0.4299 4.2078 -11.6621 0.6344 -1.1710 17.0521 -0.1199 -2.2728 10.1237 -0.1382 -1.4470 1.2241 10.0428 21.1016 -0.7613 -20.2387 28.8000 -2.1623 -5.4614 14.2983 3.8924 0.0000 -0.0000 0.0000 -76.6395 -16.0690 19.1532 65.9114 -57.6897 -39.3005 -0.0000 0.0000 -23.4083 31.7868 11.5204 7.0554 -7.1250 0.0000 -0.0000 4.2395 43.4238 -0.1652 0.0000 -0.0000 0.0000 44.8902 -11.0885 -37.2728 -56.5826 55.3283 -31.5136 0.0000 -0.0000 -32.7137 -56.5441 23.5281 -31.1376 7.1250 -0.0000 -0.0000 -15.8196 7.0514 -18.3136
18.2682 15.9119 -3.1650 152.4690 -73.4651 -148.6510 0.0000 0.0000 0.0000 -13.4857 22.1051 -32.7589 9.0689 16.8518 56.3280 1.0321 17.3579 -32.1395 0.1479 2.4781 6.8289 0.0000 0.0000 0.0000 6.5957 10.6837 -35.9947 -11.8922 -18.3447 65.6468 -2.5927 6.2305 -29.2018 -0.3145 3.6050 -9.9678 0.5684 -1.1102 17.1127 -0.1767 -2.2101 10.1968 -0.1704 -1.4195 1.2718 10.3984 21.0746 -0.6688 -20.5125 28.7970 -2.1189 -5.5676 14.2954 3.9861 0.0000 0.0000 0.0000 -76.5364 -16.2232 19.1810 65.9400 -57.6955 -39.3246 -0.0000 0.0000 -23.5590 31.2639 11.9106 7.1423 -7.1250 0.0000 -0.0000 3.7405 43.8094 -0.1101 0.0000 0.0000 0.0000 45.1413 -10.9520 -37.3492 -56.1577 55.1960 -31.1645 0.0000 -0.0000 -32.8225 -57.7419 23.6676 -32.4575 7.1250 -0.0000 -0.0000 -16.4202 8.0104 -19.3041
18.2715 15.9043 -3.1536 152.8200 -73.7706 -148.9070 0.0000 0.0000 0.0000 -13.2706 22.1119 -33.0547 9.1408 16.8975 56.5758 1.0245 17.1638 -31.8931 0.1604 2.5806 7.1131 0.0000 0.0000 0.0000 6.8072 10.6581 -36.0800 -11.9167 -18.3552 65.7246 -2.6055 6.0839 -29.2947 -0.3028 3.5380 -9.7804 0.7114 -1.1245 17.0894 -0.1160 -2.2103 10.2317 -0.1888 -1.4156 1.3198 10.4662 21.0938 -0.6583 -20.5637 28.8366 -2.0655 -5.5778 14.3128 4.0243 0.0000 -0.0000 0.0000 -76.5656 -16.1883 18.9908 66.0151 -57.7106 -39.3881 -0.0000 0.0000 -23.6285 31.3864 12.3053 7.4080 -7.1250 0.0000 -0.0000 3.8360 44.2795 -0.0683 0.0000 -0.0000 0.0000 45.1713 -10.6610 -37.2658 -55.6076 55.0211 -30.7132 0.0000 -0.0000 -33.3414 -57.1961 23.5425 -31.7865 7.1250 -0.0000 -0.0000 -16.1652 7.4862 -18.8528
18.2737 15.8948 -3.1365 153.2720 -74.2612 -149.3240 0.0000 0.0000 0.0000 -12.8947 21.9297 -33.2114 9.2023 16.9361 56.7871 1.0156 16.9678 -31.6372 0.1498 2.4937 6.8721 0.0000 0.0000 0.0000 7.1224 10.3230 -36.1277 -11.9243 -18.3585 65.7488 -2.6156 6.1888 -29.3417 -0.2646 3.3090 -9.1404 0.9549 -1.1429 17.2195 0.0973 -2.1977 10.2285 -0.0996 -1.4053 1.2511 10.3657 21.0699 -0.7172 -20.5358 28.8066 -2.0138 -5.5579 14.2934 4.0262 -0.0000 0.0000 0.0000 -76.9123 -16.1240 18.9978 66.1973 -57.7471 -39.5422 -0.0000 0.0000 -23.5116 31.9124 12.9321 7.9341 -7.1250 0.0000 -0.0000 4.3000 45.0728 0.0077 -0.0000 0.0000 0.0000 44.9025 -10.2167 -37.4079 -54.5332 54.6679 -29.8348 0.0000 -0.0000 -33.4235 -56.1371 22.7970 -30.0030 7.1250 -0.0000 -0.0000 -15.8128 5.8211 -18.0033
18.2728 15.8939 -3.1180 152.9910 -74.8450 -149.1060 0.0000 0.0000 0.0000 -12.6589 21.6127 -33.2609 9.2517 16.9670 56.9566 0.8973 17.2356 -31.1611 0.0681 1.6840 4.6332 0.0000 0.0000 0.0000 7.2978 9.9067 -35.9933 -11.9117 -18.3531 65.7086 -2.6415 6.2954 -29.4820 -0.2094 2.9460 -8.1286 1.2469 -1.2509 17.3477 0.2176 -2.3012 10.2795 -0.1182 -1.4501 1.2362 10.2677 21.0535 -0.8493 -20.6609 28.7721 -2.1047 -5.5757 14.2712 4.0220 0.0000 0.0000 0.0000 -77.0970 -16.1027 18.9398 66.4991 -57.8067 -39.7975 -0.0000 0.0000 -23.2921 31.3069 13.2281 7.9228 -7.1250 0.0000 -0.0000 3.7125 45.3300 0.0303 0.0000 0.0000 0.0000 44.6280 -9.4928 -37.5616 -53.3260 54.2519 -28.8525 0.0000 -0.0000 -33.2224 -55.6073 22.2129 -28.9109 7.1250 -0.0000 -0.0000 -15.6931 4.7153 -17.5792
18.2704 15.8986 -3.1001 152.3620 -75.5477 -148.4720 0.0000 0.0000 0.0000 -12.4728 21.1753 -33.4109 9.3007 16.9974 57.1243 0.7781 17.5993 -30.7765 0.0248 1.0162 2.7933 0.0000 0.0000 0.0000 7.4719 9.5045 -35.8502 -11.8844 -18.3413 65.6218 -2.6681 6.0741 -29.6630 -0.1802 2.7339 -7.5387 1.6289 -1.4379 17.3496 0.2486 -2.4934 10.3315 -0.2711 -1.5303 1.2788 10.9416 20.9043 -0.8813 -21.5961 28.6107 -2.2665 -5.8982 14.1785 4.2071 0.0000 -0.0000 0.0000 -76.9828 -16.0855 18.7495 66.6359 -57.8334 -39.9133 -0.0000 0.0000 -23.2286 29.6505 12.7781 7.1760 -7.1250 0.0000 -0.0000 2.1874 44.5946 -0.0219 0.0000 -0.0000 0.0000 44.9290 -8.9449 -37.8306 -53.0544 54.1555 -28.6322 0.0000 -0.0000 -33.4005 -54.9987 22.4026 -28.5577 7.1250 -0.0000 -0.0000 -15.3079 4.6146 -17.0903
